# xmcd
#
# Track frame offsets:
#	150
#	25862
#	55604
#	86455
#	117709
#	148687
#	190989
#	230725
#	244723
#	289453
#
# Disc length: 4441 seconds
#
# Revision: 0
# Processed by: cddbd v1.5.2PL0 Copyright (c) Steve Scherf et al.
# Submitted via: audiograbber 1.83.01
#
DISCID=9211570a
DTITLE=Grateful Dead - 94-09-17 Shoreline Amphitheatre, Mountain View CA
DYEAR=1900
DGENRE=
TTITLE0=Jack Straw
TTITLE1=Peggy-O
TTITLE2=The Same Thing
TTITLE3=West LA Fadeaway
TTITLE4=Queen Jane Approximately
TTITLE5=Ramble On Rose
TTITLE6=Eternity
TTITLE7=Don't Ease Me In
TTITLE8=Playing In The Band
TTITLE9=Uncle John's Band
EXTD=
EXTT0=
EXTT1=
EXTT2=
EXTT3=
EXTT4=
EXTT5=
EXTT6=
EXTT7=
EXTT8=
EXTT9=
PLAYORDER=
